<svg version="1.2" xmlns="http://www.w3.org/2000/svg" viewBox="0 0 20 18" width="20" height="18"><style>.a{fill:#fff}</style><path fill-rule="evenodd" class="a" d="m20 15.4c0 1.4-1.1 2.6-2.5 2.6h-15c-1.4 0-2.5-1.2-2.5-2.6v-12.8c0-1.4 1.1-2.6 2.5-2.6h5c0.8 0 1.5 0.4 2 1l0.7 1.1c0.3 0.3 0.7 0.5 1 0.5h6.3c1.4 0 2.5 1.1 2.5 2.5zm-10.9-1.6c0 0.6 0.4 1 0.9 1 0.5 0 0.9-0.4 0.9-1v-2.5h2.5c0.6 0 1-0.5 1-1 0-0.5-0.4-1-1-1h-2.5v-2.5c0-0.6-0.4-1-0.9-1-0.5 0-0.9 0.4-0.9 1v2.5h-2.5c-0.6 0-1 0.5-1 1 0 0.5 0.4 1 1 1h2.5z"/></svg>