<svg version="1.2" xmlns="http://www.w3.org/2000/svg" viewBox="0 0 20 20" width="20" height="20"><style>.a{fill:#fff}</style><path fill-rule="evenodd" class="a" d="m20 14.2c0 2.7-1.8 5.7-4.6 5.8-0.5 0-1.9-0.1-3.3-0.5-1.3-0.4-2.9-0.4-4.2 0-1.2 0.4-2.4 0.5-3.1 0.5h-0.1c-2.8 0-4.7-3.1-4.7-5.8 0-3.3 2.4-5.9 5.3-5.9h3.9v-5c0-1.3 1.1-2.5 2.5-2.5 1.3 0 2.5 1.2 2.5 2.5v0.9c0 0.4 0.3 0.8 0.8 0.8 0.5 0 0.8-0.4 0.8-0.8v-3.4c0-0.4 0.4-0.8 0.9-0.8 0.4 0 0.8 0.4 0.8 0.8v3.4c0 1.3-1.1 2.5-2.5 2.5-1.4 0-2.5-1.2-2.5-2.5v-0.9c0-0.4-0.4-0.8-0.8-0.8-0.5 0-0.9 0.4-0.9 0.8v5h3.9c2.9 0 5.3 2.6 5.3 5.9zm-11.7 0c0-0.5-0.3-0.9-0.8-0.9h-0.8v-0.8c0-0.5-0.4-0.8-0.9-0.8-0.4 0-0.8 0.3-0.8 0.8v0.8h-0.8c-0.5 0-0.9 0.4-0.9 0.9 0 0.4 0.4 0.8 0.9 0.8h0.8v0.8c0 0.5 0.4 0.9 0.8 0.9 0.5 0 0.9-0.4 0.9-0.9v-0.8h0.8c0.5 0 0.8-0.4 0.8-0.8zm6.7-1.7c0-0.5-0.4-0.8-0.8-0.8-0.5 0-0.9 0.3-0.9 0.8 0 0.5 0.4 0.8 0.9 0.8 0.4 0 0.8-0.3 0.8-0.8zm-1.7 1.7c0-0.5-0.3-0.9-0.8-0.9-0.5 0-0.8 0.4-0.8 0.9 0 0.4 0.3 0.8 0.8 0.8 0.5 0 0.8-0.4 0.8-0.8zm1.7 1.6c0-0.4-0.4-0.8-0.8-0.8-0.5 0-0.9 0.4-0.9 0.8 0 0.5 0.4 0.9 0.9 0.9 0.4 0 0.8-0.4 0.8-0.9zm1.7-1.6c0-0.5-0.4-0.9-0.9-0.9-0.4 0-0.8 0.4-0.8 0.9 0 0.4 0.4 0.8 0.8 0.8 0.5 0 0.9-0.4 0.9-0.8z"/></svg>