<svg version="1.2" xmlns="http://www.w3.org/2000/svg" viewBox="0 0 20 20" width="20" height="20"><path fill="#fff" d="m13.7 3.8c-1.4 0-2.8 0.5-3.8 1.3q-0.2 0.2-0.3 0.4 0 0.3 0.2 0.5 0.4 0.5 0.8 1.1 0.1 0.2 0.3 0.2 0.3 0 0.5-0.1c0.6-0.6 1.4-0.9 2.3-0.9 2 0 3.7 1.7 3.7 3.7 0 2-1.7 3.6-3.7 3.6-2 0-3.6-1.6-3.6-3.6 0-0.1 0-0.5 0-0.5 0-1.2-0.9-2.3-1.6-3q-0.2-0.2-0.4-0.4c-0.9-0.7-2-1.1-3.1-1.1-2.8 0-5 2.2-5 5 0 2.7 2.2 4.9 5 4.9q1 0 1.9-0.4 0.3-0.1 0.4-0.4 0.1-0.3-0.1-0.5-0.2-0.4-0.3-0.7-0.1-0.3-0.2-0.6-0.1-0.1-0.3-0.2-0.2-0.1-0.3 0-0.5 0.3-1.1 0.3c-1.4 0-2.4-1.1-2.4-2.4 0-1.4 1-2.4 2.4-2.4 1.1 0 2.1 0.8 2.3 1.8q0.1 0.4 0.2 0.8 0.1 0.3 0.1 0.6c0.1 0.5 0.2 1.1 0.4 1.6 0.4 0.6 1.1 1.6 1.4 2 1.1 1.1 2.6 1.8 4.3 1.8 3.4 0 6.2-2.8 6.2-6.2 0-3.5-2.8-6.2-6.2-6.2z"/></svg>