<svg version="1.2" xmlns="http://www.w3.org/2000/svg" viewBox="0 0 20 20" width="20" height="20"><path fill="#fff" d="m0 15q0 0.5 0.4 0.9 0.3 0.4 0.9 0.4h1.2q1.3 0 2.4-0.5 1.2-0.5 2-1.4 0.8-0.8 1.4-2 0.5-1.1 0.5-2.4 0-1.5 1-2.6 1.1-1.1 2.7-1.1h2.5v1.2q0 0.4 0.2 0.7 0.3 0.3 0.6 0.5 0.3 0.1 0.7 0 0.4 0 0.6-0.3l2.5-2.5q0.4-0.4 0.4-0.9 0-0.5-0.4-0.9l-2.5-2.5q-0.3-0.3-0.6-0.3-0.4-0.1-0.7 0.1-0.4 0.1-0.6 0.4-0.2 0.3-0.2 0.7v1.3h-2.5q-1.3 0-2.4 0.5-1.2 0.5-2 1.3-0.9 0.8-1.4 2-0.5 1.2-0.4 2.4 0 1.6-1.1 2.7-1.1 1.1-2.7 1.1h-1.2q-0.6 0-0.9 0.3-0.4 0.4-0.4 0.9zm0-10q0 0.5 0.4 0.9 0.3 0.4 0.9 0.4h1.2q0.9 0 1.6 0.3 0.8 0.4 1.3 1.1 0.4-1.3 1.3-2.3-1.9-1.6-4.2-1.6h-1.2q-0.6 0-0.9 0.3-0.4 0.4-0.4 0.9zm8.4 9.7q1.7 1.6 4.1 1.6h2.5v1.2q0 0.4 0.2 0.7 0.3 0.4 0.6 0.5 0.3 0.1 0.7 0 0.4 0 0.6-0.3l2.5-2.5q0.4-0.4 0.4-0.9 0-0.5-0.4-0.9l-2.5-2.5q-0.3-0.3-0.6-0.3-0.4-0.1-0.7 0.1-0.4 0.1-0.6 0.4-0.2 0.3-0.2 0.7v1.3h-2.5q-0.9 0-1.6-0.4-0.8-0.4-1.3-1-0.4 1.2-1.2 2.3z"/></svg>