<svg version="1.2" xmlns="http://www.w3.org/2000/svg" viewBox="0 0 20 18" width="20" height="18"><style>.a{fill:#fff}</style><path fill-rule="evenodd" class="a" d="m7.7 0l0.3 0.1c0.2 0 0.4 0.1 0.5 0.2 0.1 0 0.3 0.2 0.4 0.3 0.2 0.1 0.6 0.4 1.5 1.4h2.9c1.6 0 3.1 0 3.5 0 0.4 0 0.7 0.1 0.8 0.1 0.2 0 0.4 0.1 0.5 0.1 0.2 0.1 0.3 0.2 0.4 0.2 0.1 0.1 0.3 0.2 0.4 0.3 0.1 0.1 0.3 0.3 0.4 0.4 0.1 0.1 0.3 0.4 0.4 0.5 0 0.2 0.1 0.4 0.1 0.5 0.1 0.2 0.1 0.4 0.1 0.5 0.1 0.1 0.1 1.6 0.1 5 0 3.2 0 5 0 5.4 0 0.3-0.1 0.6-0.1 0.7 0 0.2-0.1 0.4-0.1 0.5-0.1 0.1-0.2 0.2-0.2 0.4-0.1 0.1-0.3 0.3-0.4 0.4-0.1 0.2-0.3 0.3-0.4 0.4-0.1 0.1-0.3 0.2-0.5 0.3-0.1 0.1-0.4 0.1-0.5 0.2-0.1 0-0.4 0.1-0.5 0.1-0.1 0-3.2 0-7.3 0-4.1 0-7.2 0-7.3 0-0.1 0-0.4-0.1-0.5-0.1-0.1-0.1-0.4-0.1-0.5-0.2-0.1-0.1-0.3-0.2-0.4-0.2-0.1-0.1-0.2-0.2-0.4-0.3-0.1-0.1-0.2-0.3-0.3-0.4-0.1-0.1-0.2-0.3-0.3-0.4 0-0.1-0.1-0.3-0.1-0.4 0-0.1-0.1-0.3-0.1-0.4 0-0.1-0.1-0.3-0.1-0.6 0-0.2 0-2.8 0-6.3q0-5.8 0-6.1c0-0.1 0.1-0.3 0.1-0.4 0.1-0.1 0.1-0.3 0.2-0.4 0-0.2 0.1-0.3 0.2-0.5 0.1-0.1 0.2-0.3 0.3-0.4 0.1-0.1 0.3-0.2 0.4-0.3 0.1-0.1 0.2-0.2 0.4-0.2 0.1-0.1 0.3-0.2 0.4-0.2 0.1-0.1 0.3-0.1 0.4-0.1 0.1-0.1 0.2-0.1 0.2-0.1 0 0 1.2 0 5.1 0zm-5.7 9.5c0 3.4 0 5.5 0.1 5.6 0 0.1 0 0.3 0.1 0.4 0 0 0.1 0.2 0.2 0.2 0 0.1 0.1 0.1 0.2 0.2q0.1 0 0.4 0.1c0.3 0 2.8 0 7 0 4.2 0 6.7 0 7 0 0.2-0.1 0.4-0.1 0.5-0.1 0-0.1 0.1-0.2 0.2-0.3 0.1 0 0.2-0.2 0.2-0.3 0-0.1 0-0.5 0.1-5.1 0-3.5 0-5.1-0.1-5.3q0-0.3-0.1-0.4c0-0.1-0.1-0.2-0.2-0.2-0.1-0.1-0.2-0.2-0.3-0.2-0.1-0.1-0.7-0.1-7.7-0.1h-7.6zm6.1-2.4q0.2 0 0.3 0c0.1 0.1 0.3 0.3 1.6 1.5l0.7-0.7c0.6-0.6 0.8-0.7 0.9-0.8q0.1 0 0.4 0c0.2 0 0.3 0 0.4 0 0.1 0.1 0.2 0.2 0.3 0.2 0.1 0.1 0.2 0.2 0.2 0.3 0.1 0.1 0.1 0.2 0.1 0.5 0 0.2 0 0.3-0.1 0.4 0 0.1-0.3 0.4-1.5 1.6l0.8 0.7c0.6 0.6 0.7 0.7 0.7 0.9q0.1 0.2 0.1 0.4 0 0.2-0.1 0.3c0 0.1-0.1 0.3-0.1 0.3-0.1 0.1-0.2 0.2-0.3 0.2-0.1 0.1-0.2 0.1-0.3 0.2q-0.2 0-0.4-0.1c-0.1 0-0.2 0-0.3 0-0.1-0.1-0.4-0.4-1.5-1.5l-0.7 0.7c-0.4 0.4-0.7 0.7-0.8 0.8-0.1 0-0.2 0-0.3 0q-0.2 0.1-0.4 0.1c-0.1-0.1-0.2-0.1-0.3-0.2-0.1 0-0.2-0.1-0.3-0.2 0 0-0.1-0.2-0.1-0.3q-0.1-0.1-0.1-0.3 0-0.2 0.1-0.4c0-0.2 0.1-0.3 1.5-1.6l-0.7-0.7c-0.5-0.5-0.8-0.8-0.8-0.9-0.1-0.1-0.1-0.2-0.1-0.4 0-0.3 0-0.4 0.1-0.5 0-0.1 0.1-0.2 0.2-0.3 0.1 0 0.2-0.1 0.2-0.1 0 0 0.1-0.1 0.2-0.1q0.1 0 0.4 0z"/></svg>