<svg version="1.2" xmlns="http://www.w3.org/2000/svg" viewBox="0 0 20 18" width="20" height="18"><style>.a{fill:#fff}</style><path fill-rule="evenodd" class="a" d="m7.8 0l0.3 0.1c0.1 0.1 0.3 0.1 0.4 0.2 0.1 0.1 0.3 0.2 0.4 0.2 0.1 0.1 0.5 0.5 1.5 1.5h3.3c2.1 0 3.4 0 3.6 0 0.2 0.1 0.4 0.1 0.6 0.1 0.1 0.1 0.3 0.1 0.4 0.2 0.1 0.1 0.3 0.2 0.4 0.3 0.1 0 0.3 0.2 0.4 0.3 0.2 0.1 0.3 0.3 0.4 0.4 0 0.1 0.1 0.2 0.2 0.4 0 0.1 0.1 0.4 0.2 0.8l0.1 3.3c0 1.8 0 4.2 0 5.3 0 1.5 0 2.1-0.1 2.3 0 0.2 0 0.4-0.1 0.6 0 0.1-0.1 0.3-0.2 0.4 0 0.1-0.2 0.3-0.3 0.5-0.1 0.1-0.3 0.3-0.4 0.4-0.1 0.1-0.3 0.2-0.4 0.3-0.1 0-0.2 0.1-0.3 0.1-0.1 0.1-0.2 0.1-0.4 0.2-0.2 0-0.3 0-1.6 0.1-0.7 0-3.9 0-7.4 0-4.1 0-6.2 0-6.3-0.1-0.1 0-0.4 0-0.5-0.1-0.2-0.1-0.4-0.1-0.5-0.2-0.1-0.1-0.3-0.2-0.4-0.3-0.1-0.1-0.3-0.3-0.4-0.4-0.1-0.1-0.3-0.3-0.3-0.5-0.1-0.2-0.2-0.4-0.3-0.6 0-0.2 0-0.4-0.1-0.8 0-0.4 0-2.5 0-6.1 0-3.1 0-5.8 0-6q0.1-0.5 0.1-0.7c0.1-0.1 0.1-0.4 0.2-0.5 0.1-0.2 0.2-0.4 0.3-0.5 0.1-0.1 0.3-0.3 0.4-0.4 0.1-0.1 0.3-0.3 0.4-0.4 0.2 0 0.4-0.1 0.5-0.2 0.1 0 0.3-0.1 0.4-0.1 0.1-0.1 0.5-0.1 5.5-0.1zm-0.1 7c-0.1 0.1-0.2 0.1-0.3 0.2 0 0-0.1 0.1-0.2 0.2 0 0-0.1 0.1-0.1 0.2-0.1 0.1-0.1 0.2-0.1 0.4 0 0.2 0.1 0.4 0.1 0.4 0 0.1 0.1 0.2 0.3 0.4 0.1 0.1 0.4 0.5 0.7 0.7l0.5 0.5c-1.2 1.2-1.5 1.5-1.5 1.6-0.1 0.1-0.1 0.2-0.1 0.4 0 0.3 0 0.3 0.1 0.5 0.1 0.1 0.2 0.2 0.2 0.2 0.1 0.1 0.2 0.2 0.3 0.2 0 0 0.2 0.1 0.2 0.1 0.2 0 0.3 0 0.4 0 0.2-0.1 0.3-0.1 0.4-0.2 0.1-0.1 0.5-0.4 0.8-0.7l0.6-0.6c1 1 1.4 1.3 1.5 1.3q0.1 0.1 0.3 0.2c0.1 0 0.2 0 0.4 0 0 0 0.2-0.1 0.2-0.1 0.1 0 0.2-0.1 0.3-0.2 0 0 0.1-0.1 0.2-0.2 0.1-0.2 0.1-0.2 0.1-0.5 0-0.3 0-0.3-0.1-0.4-0.1-0.2-0.3-0.4-0.8-0.9l-0.7-0.7q0.6-0.5 1-1c0.2-0.2 0.5-0.5 0.5-0.6 0.1-0.1 0.1-0.2 0.1-0.4 0-0.3 0-0.3-0.1-0.5-0.1-0.1-0.2-0.2-0.2-0.2-0.1-0.1-0.2-0.2-0.3-0.2-0.1 0-0.2-0.1-0.3-0.1-0.1 0-0.2 0-0.3 0-0.1 0-0.2 0.1-0.3 0.1-0.1 0.1-0.4 0.4-0.8 0.8l-0.7 0.7c-0.8-0.8-1.1-1.1-1.2-1.2-0.2-0.2-0.3-0.3-0.4-0.3-0.1-0.1-0.2-0.1-0.3-0.1-0.2 0-0.3 0-0.4 0z"/></svg>