<svg version="1.2" xmlns="http://www.w3.org/2000/svg" viewBox="0 0 20 20" width="20" height="20"><style>.a{fill:#fff}</style><path class="a" d="m17.6 2.4c-1.6-1.6-3.8-2.4-5.9-2.4-2.1 0-4.2 0.8-5.9 2.4-1.6 1.6-2.4 3.8-2.4 5.9 0 1.5 0.4 3 1.2 4.3l-4 4c-0.8 0.8-0.8 2 0 2.8 0.8 0.8 2 0.8 2.8 0l4-4c1.3 0.8 2.8 1.2 4.3 1.2 2.1 0 4.3-0.8 5.9-2.4 1.6-1.7 2.4-3.8 2.4-5.9 0-2.1-0.8-4.3-2.4-5.9zm-2.3 9.5c-1 1-2.3 1.5-3.6 1.5-1.3 0-2.6-0.5-3.6-1.5-1-1-1.5-2.3-1.5-3.6 0-1.3 0.5-2.6 1.5-3.6 1-1 2.3-1.5 3.6-1.5 1.3 0 2.6 0.5 3.6 1.5 1 1 1.5 2.3 1.5 3.6 0 1.3-0.5 2.6-1.5 3.6z"/></svg>