<svg version="1.2" xmlns="http://www.w3.org/2000/svg" viewBox="0 0 20 20" width="20" height="20"><style>.a{fill:#fff}</style><path class="a" d="m7.2 3.4c1.2-2.3 1.9-3.4 2.8-3.4 0.9 0 1.6 1.1 2.8 3.4l0.4 0.6c0.3 0.6 0.5 1 0.8 1.2 0.3 0.2 0.6 0.3 1.3 0.4l0.7 0.2c2.4 0.5 3.6 0.8 3.9 1.7 0.3 1-0.5 2-2.2 3.9l-0.4 0.5c-0.5 0.6-0.7 0.9-0.8 1.2-0.1 0.4-0.1 0.7 0 1.5v0.7c0.3 2.6 0.4 3.9-0.4 4.5-0.7 0.5-1.9 0-4.2-1l-0.6-0.3c-0.6-0.3-1-0.5-1.3-0.5-0.3 0-0.7 0.2-1.3 0.5l-0.6 0.3c-2.3 1-3.5 1.5-4.2 1-0.8-0.6-0.7-1.9-0.4-4.5v-0.7c0.1-0.8 0.1-1.1 0-1.5-0.1-0.3-0.3-0.6-0.8-1.2l-0.4-0.5c-1.7-1.9-2.5-2.9-2.2-3.9 0.3-0.9 1.5-1.2 3.9-1.7l0.7-0.2c0.7-0.1 1-0.2 1.3-0.4 0.3-0.2 0.5-0.6 0.8-1.2z"/></svg>