<svg version="1.2" xmlns="http://www.w3.org/2000/svg" viewBox="0 0 20 20" width="20" height="20"><path fill-rule="evenodd" fill="#ffffff" d="m10.9 0q0.3 0 0.4 0.1c0 0 0.1 0 0.2 0.1 0 0 0.2 0.1 0.2 0.1 0.1 0.1 0.2 0.2 0.2 0.2 0 0.1 0.1 0.2 0.1 0.2q0 0.1 0 0.2c0 0 0.1 0.1 0.1 0.2 0 0.1 0 0.1 0 0.3 0 0.1 0 0.2 0 0.3 0 0-0.1 0.2-0.1 0.3-0.1 0.1-0.2 0.2-0.3 0.3 0 0.1-0.1 0.2-0.2 0.3-0.1 0.1-0.3 0.2-0.6 0.4v1.2h2.5v3.3h0.8v-0.8h1.6v5.8h0.9v-0.8h1.6v6.6h0.8q0.8 0 0.9 0c0 0 0 0.4-0.1 1.7h-9c-9.1 0-9.1 0-9.1-0.1 0 0 0 0-0.8 0-0.6 0-0.8 0-0.8-0.1 0 0 0-0.3 0-1.6h1.6v-6.5h1.7v0.8h0.8v-5.8h1.7v0.8h0.8v-3.3h2.4v-1.2l-0.1-0.1c-0.1-0.1-0.2-0.2-0.3-0.2-0.1-0.1-0.2-0.2-0.3-0.3 0-0.1-0.1-0.2-0.2-0.3 0-0.1-0.1-0.2-0.1-0.3 0 0 0-0.2-0.1-0.2 0-0.1 0-0.3 0-0.4q0-0.2 0.1-0.4c0 0 0-0.1 0.1-0.2 0.1-0.1 0.2-0.2 0.2-0.3 0.1 0 0.1-0.1 0.2-0.1 0 0 0.1-0.1 0.2-0.1 0.1 0 0.2 0 0.3 0 0 0 0.2 0 0.3 0 0 0 0.1 0.1 0.2 0.1 0.1 0 0.2 0.1 0.4 0.3l0.2-0.2c0.1-0.1 0.2-0.2 0.2-0.2q0.1 0 0.1 0c0.1 0 0.1-0.1 0.3-0.1zm-2.5 7.5h3.3v-1.6h-3.3zm-2.4 4.9h1.6v-0.8h1.6v0.8h1.7v-0.8h1.6v0.8h1.7v-3.3h-8.2zm-1.9 1.7q0 0 0.1 0.1c0.1 0.1 0.2 0.2 0.2 0.3 0.1 0.1 0.3 0.3 0.4 0.4 0.1 0.1 0.2 0.2 0.3 0.2 0.1 0 0.3 0.1 0.4 0.1 0.1 0.1 0.3 0.1 0.4 0.1 0.1 0 0.4 0 0.5 0 0.1 0 0.3 0 0.4 0 0.1 0 0.2-0.1 0.2-0.1 0.1 0 0.2 0 0.3-0.1 0.1 0 0.3-0.1 0.3-0.2 0.1 0 0.3-0.2 0.3-0.2 0.1-0.1 0.2-0.2 0.3-0.3 0.1-0.1 0.2-0.2 0.2-0.3-3.3 0-4.3 0-4.3 0zm7.7 0c0 0.1 0.1 0.2 0.1 0.3 0.1 0.1 0.2 0.2 0.3 0.3 0.1 0 0.2 0.2 0.3 0.2 0.1 0.1 0.2 0.2 0.4 0.2 0.1 0.1 0.2 0.1 0.2 0.1 0.1 0 0.2 0.1 0.3 0.1 0 0 0.2 0 0.3 0 0.2 0 0.4 0 0.5 0 0.2 0 0.4 0 0.5-0.1 0.1 0 0.2-0.1 0.3-0.1 0.1 0 0.2-0.1 0.4-0.2 0.1-0.1 0.2-0.3 0.3-0.4 0.1-0.1 0.2-0.2 0.2-0.3q0.1-0.1 0.1-0.1c0 0-0.9 0-2.1 0h-2.2zm-1.7 0.6c-0.1 0-0.2 0.2-0.4 0.4-0.2 0.3-0.3 0.5-0.5 0.7-0.1 0.1-0.3 0.3-0.5 0.4-0.1 0-0.3 0.2-0.5 0.3-0.3 0.1-0.5 0.2-0.7 0.3-0.1 0-0.3 0.1-0.4 0.1-0.2 0-0.4 0-0.6 0-0.2 0-0.4 0-0.6 0-0.2 0-0.4 0-0.5-0.1-0.2 0-0.4 0-0.5-0.1-0.1 0-0.3-0.1-0.5-0.2q-0.3-0.1-0.5-0.3c-0.1-0.1-0.2-0.2-0.3-0.2l-0.1-0.1v2.1c1.1 0.1 3.7 0.1 6.5 0.1 2.9 0 5.5 0 6 0h0.7v-2.2q-0.2 0.2-0.4 0.3-0.2 0.2-0.5 0.3c-0.1 0.1-0.3 0.2-0.5 0.2-0.1 0.1-0.3 0.1-0.4 0.1-0.1 0.1-0.4 0.1-0.5 0.1-0.2 0-0.5 0-0.7 0-0.2 0-0.4 0-0.5 0-0.2 0-0.4-0.1-0.5-0.1-0.1-0.1-0.4-0.2-0.6-0.3-0.2-0.1-0.5-0.3-0.6-0.3-0.1-0.1-0.3-0.3-0.5-0.5-0.2-0.2-0.3-0.3-0.5-0.7-0.2-0.2-0.4-0.4-0.4-0.4q0 0 0 0.1z"/></svg>
