<svg version="1.2" xmlns="http://www.w3.org/2000/svg" viewBox="0 0 20 20" width="20" height="20"><style>.a{fill:#fff}</style><path class="a" d="m0 10q0 1.8 1.1 3.2 1.2 1.3 2.9 1.7 0 0 0 0v-0.1q0 0 0 0 0.4-0.8 0.9-1.3 0.5-0.6 1.4-0.8v-1.4q0-1.6 1-2.7 1.1-1.1 2.7-1.1 1.6 0 2.7 1.1 1 1.1 1.1 2.7v1.4q0.8 0.3 1.3 0.8 0.5 0.5 0.9 1.3v0.2h0.3q1.5 0 2.6-1.1 1.1-1.1 1.1-2.6v-1.3q0-1.5-1.1-2.6-1.1-1.1-2.6-1.1-0.1 0-0.2 0 0.2-0.7 0.2-1.3 0-2.1-1.5-3.5-1.5-1.5-3.5-1.5-1.8 0-3.2 1.1-1.4 1.2-1.7 2.9-0.8-0.2-1.4-0.2-2.1 0-3.5 1.4-1.5 1.5-1.5 3.6zm6.3 6.1q-0.1 0.6 0.3 1l2.5 2.5q0.4 0.4 0.9 0.4 0.5 0 0.9-0.4l2.5-2.5q0.4-0.4 0.4-1-0.1-0.2-0.1-0.4-0.2-0.3-0.5-0.5-0.3-0.2-0.7-0.2h-1.2v-3.8q0-0.5-0.4-0.9-0.4-0.3-0.9-0.3-0.5-0.1-0.9 0.3-0.4 0.4-0.3 0.9v3.8h-1.3q-0.4 0-0.7 0.2-0.3 0.2-0.5 0.5 0 0.2 0 0.4z"/></svg>