<svg version="1.2" xmlns="http://www.w3.org/2000/svg" viewBox="0 0 20 22" width="20" height="22"><style>.a{fill:#fff}</style><path class="a" d="m16.5 5c1.4 0 2.5-1.1 2.5-2.5 0-1.4-1.1-2.5-2.5-2.5-1.4 0-2.5 1.1-2.5 2.5 0 1.4 1.1 2.5 2.5 2.5z"/><path class="a" d="m7.5 2.9l-2 1.3c-0.4 0.2-0.5 0.6-0.5 1 0 0.8 0.9 1.3 1.5 0.8l1.9-1.1c0.4-0.3 0.8-0.2 1.1 0l1.5 1.1-3.7 3.7q-0.3 0.3-0.5 0.6l-1.9 2.6c-0.2 0.3-0.7 0.5-1.1 0.3l-2.6-0.9c-0.4-0.2-0.9 0-1.1 0.3-0.3 0.5-0.2 1.1 0.3 1.4l2.5 1.3c1.2 0.7 2.8 0.4 3.7-0.6l1.9-2.2 1.8 2.5c0.4 0.6 0.5 1.4 0.2 2.1l-1.8 3.5c-0.3 0.6 0.2 1.4 0.9 1.4 0.5 0 0.9-0.1 1.2-0.6l1.9-3.9c0.5-0.9 0.5-2-0.1-2.9l-1.6-2.6 3-3 1.4 0.9c1.2 0.8 2.6 0.8 3.9 0.3 0.5-0.1 0.7-0.6 0.7-1 0-0.6-0.6-1.1-1.2-1-0.7 0.1-1.7 0.5-2.2-0.2-1.6-2.2-3.6-3.8-6.1-5.1-0.9-0.6-2.1-0.5-3 0z"/></svg>